{"asset":{"version":"2.0","generator":"THREE.GLTFExporter"},"scenes":[{"nodes":[0],"name":"AuxScene"}],"scene":0,"nodes":[{"mesh":0}],"meshes":[{"primitives":[{"mode":4,"attributes":{"POSITION":0,"NORMAL":1,"COLOR_0":2,"TEXCOORD_0":3},"material":0}]}],"materials":[{"pbrMetallicRoughness":{"metallicFactor":0.5,"roughnessFactor":1}}],"accessors":[{"bufferView":0,"componentType":5126,"count":168,"max":[25,25,25],"min":[-25,-25,-25],"type":"VEC3"},{"bufferView":1,"componentType":5126,"count":168,"max":[1,1,1],"min":[-1,-1,-1],"type":"VEC3"},{"bufferView":2,"componentType":5126,"count":168,"max":[0.95686274766922,0.8235294222831726,1],"min":[0.12156862765550613,0.16470588743686676,0.20392157137393951],"type":"VEC3"},{"bufferView":3,"componentType":5126,"count":168,"max":[25,1],"min":[-4.142857074737549,-174],"type":"VEC2"}],"bufferViews":[{"buffer":0,"byteOffset":0,"byteLength":2016,"target":34962,"byteStride":12},{"buffer":0,"byteOffset":2016,"byteLength":2016,"target":34962,"byteStride":12},{"buffer":0,"byteOffset":4032,"byteLength":2016,"target":34962,"byteStride":12},{"buffer":0,"byteOffset":6048,"byteLength":1344,"target":34962,"byteStride":8}],"buffers":[{"byteLength":7392,"uri":"data:application/octet-stream;base64,"}]}